<?xml version="1.0" encoding="UTF-8" standalone="no"?> <svg xmlns="http://www.w3.org/2000/svg" viewBox="0 0 512 512"><g id="Camera"><path d="M396.74,151.314h-81.68l-20.803-42.36a8,8,0,0,0-7.1806-4.4736H224.9243a8,8,0,0,0-7.2407,4.5986l-19.84,42.2349h-24.6l-7.7871-32.11a8,8,0,0,0-7.7744-6.1147H128.5239a8,8,0,0,0-7.8047,6.2426l-7.2133,32.0345A31.3187,31.3187,0,0,0,83.98,182.5947V376.2388A31.3165,31.3165,0,0,0,115.26,407.52H396.74a31.3165,31.3165,0,0,0,31.2808-31.2807V182.5947A31.3165,31.3165,0,0,0,396.74,151.314ZM230.0049,120.4805h52.0869l15.1426,30.8335H215.521Zm-78.6143,8.6084,5.39,22.2251H129.9184l5.0045-22.2251ZM115.26,167.314H396.74a15.2981,15.2981,0,0,1,15.2808,15.2807V341.81H320.4666a89.7632,89.7632,0,1,0-128.9332,0H99.98V182.5947A15.2981,15.2981,0,0,1,115.26,167.314ZM256,353.18a73.7632,73.7632,0,1,1,73.7632-73.7632A73.8466,73.8466,0,0,1,256,353.18Z"/><circle cx="256" cy="279.4166" r="40.4555"/><path d="M129.3354,200.8076h28.6373a8,8,0,0,0,0-16H129.3354a8,8,0,1,0,0,16Z"/><circle cx="383.4722" cy="194.8076" r="12.3917" transform="translate(56.7451 474.5402) rotate(-67.5)"/></g></svg>